<?xml version="1.0" encoding="utf-8"?>
<!-- Generator: Adobe Illustrator 15.1.0, SVG Export Plug-In . SVG Version: 6.00 Build 0)  -->
<!DOCTYPE svg PUBLIC "-//W3C//DTD SVG 1.1//EN" "http://www.w3.org/Graphics/SVG/1.1/DTD/svg11.dtd">
<svg version="1.1" id="Layer_1" xmlns="http://www.w3.org/2000/svg" xmlns:xlink="http://www.w3.org/1999/xlink" x="0px" y="0px"
	 width="455px" height="182px" viewBox="0 0 455 182" enable-background="new 0 0 455 182" xml:space="preserve">
<g>
	<path fill="#0072BC" d="M413.098,82.298c0,0-0.363-0.065-1.005-0.176c-2.248-0.389-7.898-1.367-13.262-2.303
		c-2.677-0.465-5.288-0.92-7.356-1.286c-1.036-0.184-1.94-0.344-2.648-0.47c-0.71-0.126-1.23-0.221-1.48-0.269h-0.002
		c-0.276-0.05-0.684-0.202-1.109-0.441c-0.647-0.353-1.32-0.878-1.802-1.307c-0.241-0.213-0.437-0.402-0.567-0.534
		c-0.063-0.063-0.11-0.11-0.14-0.142l-0.029-0.032l-0.005-0.005l-0.886,0.815l0.891-0.81l-0.005-0.005l-0.886,0.815l0.891-0.81
		l-0.039-0.042l-18.534-19.365c-0.931-0.97-2.469-1.004-3.438-0.074c-0.968,0.928-1.005,2.464-0.076,3.437l18.531,19.365l1.759-1.68
		l-1.796,1.638c0.061,0.065,0.755,0.828,1.846,1.69c0.547,0.431,1.191,0.894,1.933,1.304c0.741,0.408,1.583,0.773,2.556,0.962
		h-0.003c0.34,0.063,0.973,0.176,1.854,0.334c6.145,1.091,23.977,4.186,23.979,4.186c1.325,0.226,2.582-0.66,2.813-1.982
		C415.306,83.789,414.42,82.527,413.098,82.298 M354.423,15.488l-2.388,0.465c0.113,0.583,0.345,1.136,0.646,1.614
		c0.266,0.418,0.587,0.778,0.931,1.094c0.605,0.552,1.291,0.962,2.027,1.296c1.109,0.497,2.351,0.828,3.724,1.054
		c1.369,0.221,2.873,0.332,4.478,0.332c2.553,0,5.371-0.276,8.306-0.847c2.242-0.434,4.361-1.007,6.289-1.678
		c1.446-0.505,2.79-1.065,4.004-1.672c1.822-0.91,3.358-1.912,4.555-3.077c0.597-0.586,1.114-1.214,1.514-1.948
		c0.395-0.726,0.668-1.575,0.668-2.495c0-0.292-0.026-0.589-0.084-0.875c-0.113-0.586-0.344-1.139-0.646-1.617
		c-0.266-0.418-0.587-0.778-0.931-1.094c-0.603-0.552-1.291-0.962-2.027-1.299c-1.112-0.5-2.354-0.831-3.723-1.057
		c-1.373-0.221-2.877-0.329-4.483-0.329c-2.553,0.002-5.371,0.271-8.303,0.841h-0.003c-2.243,0.439-4.362,1.009-6.289,1.68
		c-1.443,0.504-2.787,1.062-4.002,1.672c-1.819,0.913-3.357,1.912-4.557,3.076c-0.595,0.589-1.112,1.22-1.509,1.954
		c-0.395,0.723-0.668,1.575-0.668,2.495c0,0.292,0.026,0.586,0.084,0.878L354.423,15.488l2.387-0.463l-0.258,0.05h0.264l-0.006-0.05
		l-0.258,0.05h0.264h-0.127l0.127,0.016v-0.016h-0.127l0.127,0.016c0,0,0.002-0.016,0.018-0.058
		c0.026-0.074,0.103-0.236,0.269-0.447c0.278-0.374,0.815-0.883,1.572-1.409c1.131-0.792,2.737-1.625,4.659-2.356
		c1.925-0.736,4.159-1.378,6.57-1.846h-0.002c2.647-0.516,5.177-0.755,7.38-0.755c1.207,0,2.316,0.071,3.281,0.203
		c0.726,0.103,1.37,0.237,1.912,0.389c0.812,0.231,1.385,0.523,1.653,0.729c0.134,0.103,0.192,0.176,0.205,0.197l0.005,0.005
		l0.189-0.105l-0.213,0.04c0.008,0.034,0.021,0.063,0.023,0.065l0.189-0.105l-0.213,0.04l0.266-0.05h-0.271l0.005,0.05l0.266-0.05
		h-0.271h0.137l-0.135-0.018l-0.002,0.018h0.137l-0.135-0.018l-0.002,0.013c-0.008,0.032-0.05,0.158-0.182,0.353
		c-0.224,0.336-0.715,0.852-1.454,1.388c-1.104,0.81-2.729,1.678-4.69,2.44c-1.967,0.768-4.272,1.436-6.763,1.919
		c-2.645,0.515-5.177,0.757-7.38,0.757c-1.207,0-2.314-0.074-3.281-0.205c-0.724-0.1-1.368-0.237-1.909-0.389
		c-0.813-0.229-1.383-0.521-1.648-0.726c-0.137-0.105-0.195-0.176-0.211-0.195l-0.002-0.005l-0.195,0.108l0.216-0.042
		c-0.005-0.034-0.019-0.066-0.021-0.066l-0.195,0.108l0.216-0.042L354.423,15.488 M361.348,38.607h-2.432
		c-0.003,4.144,1.686,7.914,4.398,10.627c2.714,2.713,6.486,4.401,10.63,4.401c4.139,0,7.909-1.688,10.62-4.401
		c2.713-2.713,4.396-6.484,4.396-10.627c0-4.139-1.684-7.909-4.396-10.62c-2.711-2.716-6.481-4.404-10.62-4.401
		c-4.144-0.003-7.916,1.685-10.627,4.401c-2.716,2.711-4.404,6.481-4.401,10.62H361.348h2.433c0-1.407,0.281-2.737,0.796-3.949
		c0.771-1.819,2.062-3.376,3.687-4.475c1.622-1.094,3.565-1.73,5.682-1.735c1.407,0,2.74,0.284,3.949,0.799
		c1.822,0.768,3.376,2.062,4.47,3.684c1.094,1.627,1.733,3.568,1.733,5.677c0,1.412-0.284,2.742-0.797,3.957
		c-0.771,1.822-2.059,3.376-3.684,4.473c-1.62,1.094-3.563,1.735-5.672,1.735c-1.411,0-2.742-0.284-3.957-0.799
		c-1.821-0.768-3.378-2.061-4.475-3.684c-1.094-1.625-1.732-3.568-1.732-5.682H361.348 M365.303,47.962l-24.59,42.526l2.109,1.217
		l-1.925-1.491c-0.071,0.095-0.589,0.773-1.125,1.867c-0.271,0.552-0.542,1.204-0.752,1.95c-0.211,0.752-0.36,1.594-0.36,2.52
		c0,0.678,0.078,1.394,0.289,2.124c0.305,1.099,0.901,2.198,1.793,3.171c0.896,0.973,2.069,1.809,3.526,2.503
		c3.847,1.835,9.844,4.749,14.873,7.194c2.514,1.23,4.791,2.34,6.437,3.139c0.82,0.405,1.488,0.726,1.948,0.952
		c0.458,0.226,0.713,0.353,0.716,0.353l0.389,0.146l0.331-1.13l-0.415,1.104c0.005,0.006,0.031,0.011,0.084,0.026l0.331-1.13
		l-0.415,1.104l0.039-0.11l-0.042,0.11h0.003l0.039-0.11l-0.042,0.11c0,0,0.048,0.021,0.101,0.053
		c0.084,0.053,0.168,0.127,0.215,0.205c0.029,0.042,0.053,0.09,0.076,0.169c0.024,0.084,0.045,0.199,0.045,0.378
		c0.003,0.368-0.103,1.025-0.57,2.035h-0.003c-0.31,0.674-0.757,1.667-1.304,2.913c-1.92,4.359-5.101,11.779-7.807,18.121
		c-2.708,6.337-4.935,11.59-4.935,11.59l2.234,0.952l-1.827-1.599c-0.073,0.079-0.392,0.447-0.744,1.057
		c-0.176,0.311-0.36,0.679-0.508,1.126c-0.149,0.446-0.271,0.978-0.271,1.593c0,0.39,0.05,0.82,0.182,1.252
		c0.199,0.657,0.594,1.304,1.117,1.804c0.521,0.51,1.146,0.889,1.841,1.173h0.005c1.654,0.673,4.151,1.624,6.255,2.413
		c2.102,0.789,3.797,1.415,3.802,1.415c1.26,0.468,2.656-0.174,3.121-1.436c0.466-1.263-0.179-2.661-1.44-3.124
		c0,0-0.103-0.037-0.295-0.11c-0.665-0.247-2.377-0.884-4.272-1.594c-1.896-0.72-3.973-1.514-5.337-2.071l0.005,0.005
		c-0.163-0.068-0.247-0.126-0.281-0.147l-0.011-0.005v-0.005l-0.336,0.378l0.452-0.194c-0.04-0.1-0.11-0.179-0.116-0.184
		l-0.336,0.378l0.452-0.194l-0.576,0.247h0.631c0-0.047-0.013-0.152-0.055-0.247l-0.576,0.247h0.631h-0.278l0.278,0.026V154.7
		h-0.278l0.278,0.026l-0.087-0.011l0.087,0.017v-0.006l-0.087-0.011l0.087,0.017l0.006-0.037c0.021-0.084,0.115-0.273,0.205-0.416
		c0.044-0.068,0.086-0.12,0.11-0.152l0.021-0.031l-0.788-0.646l0.768,0.673l0.021-0.026l-0.788-0.646l0.768,0.673l0.41-0.652
		c0,0,0.182-0.426,0.505-1.183c1.128-2.666,3.985-9.387,6.817-15.997c1.417-3.302,2.829-6.584,4.013-9.308
		c0.594-1.361,1.128-2.593,1.58-3.612c0.452-1.021,0.817-1.841,1.064-2.366l0,0c0.691-1.483,1.025-2.84,1.025-4.092
		c0.003-0.967-0.213-1.861-0.57-2.598c-0.266-0.552-0.604-1.015-0.954-1.383c-0.523-0.547-1.058-0.894-1.48-1.114
		c-0.424-0.222-0.736-0.316-0.854-0.358l-0.676,2.341l1.064-2.183c-0.003-0.005-16.268-7.962-24.013-11.658
		c-0.671-0.315-1.176-0.646-1.552-0.957c-0.57-0.463-0.859-0.878-1.038-1.262c-0.177-0.385-0.245-0.769-0.247-1.188
		c0-0.384,0.063-0.794,0.176-1.199c0.171-0.604,0.452-1.188,0.684-1.594c0.116-0.199,0.221-0.362,0.286-0.457
		c0.035-0.053,0.059-0.09,0.074-0.105l0.008-0.016l-0.868-0.654l0.863,0.665l0.005-0.011l-0.868-0.654l0.863,0.665l0.179-0.269
		L369.515,50.4c0.673-1.165,0.273-2.648-0.892-3.326C367.461,46.403,365.976,46.8,365.303,47.962 M274.253,144.557h-2.432
		c0,10.244,4.162,19.541,10.872,26.245c6.71,6.716,16.002,10.875,26.24,10.875c10.246,0.005,19.538-4.159,26.248-10.875
		c6.715-6.704,10.874-16.001,10.872-26.245c0.002-10.238-4.157-19.53-10.872-26.24c-6.71-6.71-16.002-10.869-26.248-10.869
		c-10.238,0-19.53,4.159-26.24,10.869s-10.872,16.002-10.872,26.24H274.253h2.435c0.003-8.913,3.605-16.959,9.444-22.801
		c5.843-5.837,13.891-9.444,22.802-9.444c8.918,0,16.964,3.607,22.809,9.444c5.845,5.842,9.447,13.888,9.447,22.801
		c0,8.919-3.603,16.964-9.45,22.812c-5.842,5.837-13.888,9.444-22.806,9.444c-8.911,0-16.959-3.607-22.802-9.444
		c-5.839-5.848-9.441-13.893-9.444-22.812H274.253 M380.789,143.904h-2.433c0,10.244,4.157,19.536,10.87,26.246
		c6.707,6.71,16.001,10.869,26.242,10.869c10.244,0,19.541-4.159,26.248-10.869c6.715-6.71,10.875-16.002,10.872-26.246
		c0.003-10.238-4.157-19.535-10.872-26.245c-6.707-6.71-16.004-10.869-26.248-10.869c-10.241,0-19.535,4.159-26.242,10.869
		c-6.713,6.71-10.87,16.007-10.87,26.245H380.789h2.435c0-8.913,3.602-16.964,9.444-22.801c5.84-5.842,13.885-9.449,22.801-9.449
		s16.964,3.607,22.812,9.449c5.837,5.837,9.444,13.888,9.444,22.801s-3.607,16.965-9.444,22.802
		c-5.845,5.842-13.893,9.449-22.812,9.449c-8.916,0-16.961-3.607-22.801-9.449c-5.843-5.837-9.444-13.883-9.444-22.802H380.789"/>
</g>
<g>
	<path fill="#151413" d="M86.884,32.353H67.741c-0.103-0.944-0.152-1.644-0.152-2.096c-0.454-5.732-1.739-9.339-3.858-10.809
		c-2.118-1.47-7.114-2.208-14.983-2.208c-9.283,0-15.349,0.857-18.197,2.569c-2.852,1.709-4.273,5.309-4.273,10.796
		c0,6.494,1.156,10.396,3.475,11.706c2.314,1.314,9.97,2.319,22.963,3.023c15.359,0.857,25.293,3.045,29.802,6.571
		c4.506,3.526,6.762,10.848,6.762,21.973c0,13.693-2.647,22.539-7.935,26.54c-5.292,4.008-16.956,6.006-34.986,6.006
		c-16.223,0-26.992-1.967-32.307-5.905C8.734,96.578,6.079,88.601,6.079,76.58l-0.076-3.786h19.066l0.076,2.195
		c0,7.225,1.257,11.643,3.776,13.259c2.514,1.614,9.384,2.424,20.605,2.424c8.757,0,14.344-0.934,16.756-2.795
		c2.415-1.862,3.627-6.166,3.627-12.913c0-4.979-0.919-8.295-2.754-9.931c-1.838-1.638-5.793-2.632-11.876-2.984l-10.785-0.678
		c-16.292-0.954-26.702-3.218-31.226-6.794c-4.527-3.576-6.786-11.253-6.786-23.032c0-12.037,2.733-20.048,8.204-24.053
		c5.467-4.002,16.396-6.005,32.778-6.005c15.524,0,25.988,1.835,31.383,5.498c5.393,3.667,8.089,10.816,8.089,21.452L86.884,32.353z
		"/>
	<path fill="#151413" d="M164.796,2.339v71.258c0,13.23-2.198,22.007-6.589,26.335c-4.388,4.328-13.321,6.489-26.797,6.489
		c-14.338,0-23.64-2.088-27.902-6.263c-4.264-4.181-6.396-13.315-6.396-27.403l0.287-7.627h18.686
		c0.263,3.82,0.396,6.678,0.396,8.59c0,1.806,0.074,3.989,0.226,6.549c0.301,6.224,5.281,9.339,14.937,9.339
		c5.761,0,9.464-1.117,11.106-3.347c1.643-2.229,2.465-7.257,2.465-15.084V2.339H164.796z"/>
	<path fill="#151413" d="M259.692,32.353h-19.144c-0.103-0.944-0.152-1.644-0.152-2.096c-0.453-5.732-1.741-9.339-3.857-10.809
		c-2.119-1.47-7.115-2.208-14.984-2.208c-9.283,0-15.349,0.857-18.197,2.569c-2.852,1.709-4.275,5.309-4.275,10.796
		c0,6.494,1.16,10.396,3.478,11.706c2.313,1.314,9.97,2.319,22.962,3.023c15.358,0.857,25.293,3.045,29.803,6.571
		c4.507,3.526,6.76,10.848,6.76,21.973c0,13.693-2.646,22.539-7.936,26.54c-5.292,4.008-16.953,6.006-34.986,6.006
		c-16.223,0-26.991-1.967-32.306-5.905s-7.972-11.916-7.972-23.937l-0.076-3.786h19.069l0.076,2.195
		c0,7.225,1.254,11.643,3.774,13.259c2.514,1.614,9.384,2.424,20.605,2.424c8.754,0,14.342-0.934,16.755-2.795
		c2.417-1.862,3.629-6.166,3.629-12.913c0-4.979-0.918-8.295-2.756-9.931c-1.835-1.638-5.792-2.632-11.876-2.984l-10.783-0.678
		c-16.294-0.954-26.703-3.218-31.226-6.794c-4.529-3.576-6.787-11.253-6.787-23.032c0-12.037,2.731-20.048,8.203-24.053
		c5.468-4.002,16.396-6.005,32.778-6.005c15.523,0,25.988,1.835,31.381,5.498c5.395,3.667,8.093,10.816,8.093,21.452L259.692,32.353
		z"/>
</g>
<g>
	<path fill="#0072BC" d="M30.061,128.311c-2.949,0-5.706,0.465-8.271,1.396c-2.563,0.934-4.789,2.325-6.676,4.173
		c-1.886,1.852-3.375,4.149-4.464,6.889c-1.09,2.745-1.634,5.939-1.634,9.587c0,3.623,0.504,6.765,1.514,9.429
		c1.01,2.663,2.444,4.869,4.304,6.612c1.86,1.746,4.098,3.039,6.715,3.878c2.616,0.842,5.532,1.26,8.746,1.26
		c0.877,0,1.806-0.045,2.79-0.137c0.982-0.092,1.972-0.224,2.969-0.395c0.996-0.171,1.965-0.365,2.909-0.589
		c0.942-0.224,1.787-0.466,2.531-0.729v5.669c-1.549,0.602-3.347,1.067-5.394,1.396c-2.047,0.329-4.146,0.492-6.298,0.492
		c-4.383,0-8.267-0.61-11.652-1.83c-3.386-1.22-6.228-2.971-8.523-5.256c-2.298-2.282-4.036-5.072-5.216-8.363
		c-1.181-3.295-1.772-7.028-1.772-11.201c0-4.094,0.623-7.858,1.871-11.298c1.246-3.437,3.043-6.39,5.393-8.858
		c2.349-2.466,5.197-4.388,8.542-5.766s7.106-2.066,11.278-2.066c1.103,0,2.191,0.044,3.268,0.137
		c1.076,0.092,2.106,0.224,3.089,0.395c0.985,0.171,1.896,0.373,2.736,0.609c0.84,0.236,1.562,0.486,2.166,0.747v5.669
		c-1.593-0.523-3.334-0.963-5.221-1.317C33.875,128.486,31.974,128.311,30.061,128.311z"/>
	<path fill="#0072BC" d="M72.593,155.079v21.179h-6.417v-21.179l-19.171-31.493h7.007l15.273,25.588h0.197l15.275-25.588h7.007
		L72.593,155.079z"/>
	<path fill="#0072BC" d="M123.91,128.311c-2.949,0-5.706,0.465-8.271,1.396c-2.563,0.934-4.79,2.325-6.676,4.173
		c-1.887,1.852-3.375,4.149-4.464,6.889c-1.09,2.745-1.634,5.939-1.634,9.587c0,3.623,0.505,6.765,1.515,9.429
		c1.009,2.663,2.444,4.869,4.304,6.612c1.86,1.746,4.098,3.039,6.715,3.878c2.616,0.842,5.532,1.26,8.746,1.26
		c0.877,0,1.807-0.045,2.79-0.137c0.982-0.092,1.972-0.224,2.968-0.395s1.965-0.365,2.909-0.589
		c0.943-0.224,1.787-0.466,2.531-0.729v5.669c-1.548,0.602-3.347,1.067-5.394,1.396c-2.047,0.329-4.146,0.492-6.298,0.492
		c-4.383,0-8.267-0.61-11.651-1.83c-3.387-1.22-6.228-2.971-8.523-5.256c-2.298-2.282-4.036-5.072-5.216-8.363
		c-1.181-3.295-1.772-7.028-1.772-11.201c0-4.094,0.623-7.858,1.871-11.298c1.247-3.437,3.043-6.39,5.393-8.858
		c2.349-2.466,5.197-4.388,8.542-5.766s7.105-2.066,11.278-2.066c1.103,0,2.191,0.044,3.268,0.137
		c1.075,0.092,2.106,0.224,3.089,0.395c0.984,0.171,1.896,0.373,2.736,0.609c0.84,0.236,1.562,0.486,2.165,0.747v5.669
		c-1.593-0.523-3.334-0.963-5.22-1.317C127.724,128.486,125.823,128.311,123.91,128.311z"/>
	<path fill="#0072BC" d="M152.389,123.586v46.885h25.706v5.787h-32.122v-52.672H152.389z"/>
	<path fill="#0072BC" d="M194.354,170.471h27.005v5.787h-33.422v-52.672h31.966v5.787h-25.549v17.006h22.714v5.787h-22.714V170.471z
		"/>
	<path fill="#0072BC" d="M237.498,137.521c0,1.549,0.313,2.829,0.941,3.839c0.629,1.01,1.473,1.843,2.532,2.501
		c1.06,0.654,2.29,1.193,3.689,1.614c1.401,0.418,2.86,0.813,4.377,1.181c2.041,0.499,4.05,1.049,6.026,1.653
		c1.975,0.603,3.736,1.436,5.28,2.498c1.543,1.064,2.795,2.447,3.749,4.154c0.954,1.706,1.433,3.896,1.433,6.573
		c0,2.731-0.518,5.085-1.551,7.067c-1.036,1.982-2.467,3.607-4.291,4.88c-1.827,1.275-3.986,2.219-6.479,2.834
		c-2.495,0.618-5.225,0.926-8.19,0.926c-1.364,0-2.761-0.084-4.191-0.255c-1.43-0.171-2.795-0.399-4.094-0.689
		c-1.299-0.289-2.474-0.615-3.522-0.983c-1.052-0.367-1.878-0.735-2.482-1.104v-5.863c0.946,0.471,2.009,0.904,3.189,1.299
		c1.181,0.392,2.403,0.728,3.662,1.001c1.26,0.276,2.532,0.495,3.818,0.65c1.285,0.157,2.492,0.236,3.62,0.236
		c1.838,0,3.589-0.158,5.256-0.471c1.667-0.315,3.129-0.842,4.391-1.575c1.26-0.736,2.256-1.738,2.992-3.013
		c0.733-1.272,1.102-2.866,1.102-4.783c0-1.574-0.323-2.874-0.965-3.896c-0.644-1.022-1.504-1.869-2.579-2.54
		c-1.075-0.668-2.316-1.212-3.721-1.633c-1.403-0.42-2.879-0.813-4.428-1.181c-2.048-0.473-4.049-1.004-6.002-1.596
		c-1.956-0.589-3.702-1.409-5.238-2.458c-1.535-1.049-2.769-2.403-3.699-4.058c-0.931-1.65-1.398-3.765-1.398-6.336
		c0-2.677,0.489-4.98,1.47-6.91c0.979-1.927,2.303-3.523,3.976-4.782c1.672-1.26,3.597-2.19,5.776-2.795
		c2.177-0.603,4.499-0.904,6.968-0.904c2.808,0,5.424,0.268,7.854,0.807c2.427,0.536,4.651,1.238,6.671,2.106v5.944
		c-2.178-0.92-4.428-1.667-6.75-2.245c-2.324-0.576-4.812-0.878-7.462-0.904c-1.993,0-3.726,0.216-5.195,0.649
		c-1.47,0.431-2.689,1.049-3.66,1.849c-0.973,0.802-1.693,1.771-2.166,2.913C237.735,134.865,237.498,136.13,237.498,137.521z"/>
</g>
</svg>
